<?xml version="1.0" standalone="no"?>
<!DOCTYPE svg PUBLIC "-//W3C//DTD SVG 1.1//EN" "http://www.w3.org/Graphics/SVG/1.1/DTD/svg11.dtd">
<svg width="99mm" height="72mm" viewBox="0 -72 99 72" xmlns="http://www.w3.org/2000/svg" version="1.1">
<title>OpenSCAD Model</title>
<path d="
M 96,-0.14682 L 96.927,-0.14682 L 98.427,-1.23663 L 99,-3 L 99,-69 L 98.427,-70.7634
 L 96.927,-71.8532 L 96,-71.8532 L 96,-72 L 3,-72 L 3,-71.8532 L 2.07294,-71.8532
 L 0.572937,-70.7634 L 0,-69 L 0,-3 L 0.572937,-1.23663 L 2.07294,-0.14682 L 3,-0.14682
 L 3,-0 L 96,-0 z
M 79,-64 L 79,-67 L 89,-67 L 89,-64 z
M 10,-64 L 10,-67 L 20,-67 L 20,-64 z
M 91,-52 L 91,-62 L 94,-62 L 94,-52 z
M 5,-52 L 5,-62 L 8,-62 L 8,-52 z
M 12.9058,-55.5029 L 12.7189,-55.5266 L 12.5365,-55.5734 L 12.3613,-55.6427 L 12.1963,-55.7335 L 12.0439,-55.8442
 L 11.9066,-55.9732 L 11.7865,-56.1183 L 11.6855,-56.2774 L 11.6053,-56.4478 L 11.5471,-56.627 L 11.5118,-56.812
 L 11.5,-57 L 11.5118,-57.188 L 11.5471,-57.373 L 11.6053,-57.5522 L 11.6855,-57.7226 L 11.7865,-57.8817
 L 11.9066,-58.0268 L 12.0439,-58.1558 L 12.1963,-58.2665 L 12.3613,-58.3572 L 12.5365,-58.4266 L 12.7189,-58.4734
 L 12.9058,-58.497 L 13.0942,-58.497 L 13.2811,-58.4734 L 13.4635,-58.4266 L 13.6387,-58.3572 L 13.8037,-58.2665
 L 13.9561,-58.1558 L 14.0934,-58.0268 L 14.2135,-57.8817 L 14.3145,-57.7226 L 14.3947,-57.5522 L 14.4529,-57.373
 L 14.4882,-57.188 L 14.5,-57 L 14.4882,-56.812 L 14.4529,-56.627 L 14.3947,-56.4478 L 14.3145,-56.2774
 L 14.2135,-56.1183 L 14.0934,-55.9732 L 13.9561,-55.8442 L 13.8037,-55.7335 L 13.6387,-55.6427 L 13.4635,-55.5734
 L 13.2811,-55.5266 L 13.0942,-55.5029 z
M 83.9058,-55.5029 L 83.7189,-55.5266 L 83.5365,-55.5734 L 83.3613,-55.6427 L 83.1963,-55.7335 L 83.0439,-55.8442
 L 82.9065,-55.9732 L 82.7865,-56.1183 L 82.6855,-56.2774 L 82.6053,-56.4478 L 82.5471,-56.627 L 82.5118,-56.812
 L 82.5,-57 L 82.5118,-57.188 L 82.5471,-57.373 L 82.6053,-57.5522 L 82.6855,-57.7226 L 82.7865,-57.8817
 L 82.9065,-58.0268 L 83.0439,-58.1558 L 83.1963,-58.2665 L 83.3613,-58.3572 L 83.5365,-58.4266 L 83.7189,-58.4734
 L 83.9058,-58.497 L 84.0942,-58.497 L 84.2811,-58.4734 L 84.4635,-58.4266 L 84.6387,-58.3572 L 84.8037,-58.2665
 L 84.9561,-58.1558 L 85.0934,-58.0268 L 85.2135,-57.8817 L 85.3145,-57.7226 L 85.3947,-57.5522 L 85.4529,-57.373
 L 85.4882,-57.188 L 85.5,-57 L 85.4882,-56.812 L 85.4529,-56.627 L 85.3947,-56.4478 L 85.3145,-56.2774
 L 85.2135,-56.1183 L 85.0934,-55.9732 L 84.9561,-55.8442 L 84.8037,-55.7335 L 84.6387,-55.6427 L 84.4635,-55.5734
 L 84.2811,-55.5266 L 84.0942,-55.5029 z
M 59.191,-49.4122 L 59.191,-50.5878 L 60.309,-50.951 L 61,-50 L 60.309,-49.0489 z
M 79.191,-49.4122 L 79.191,-50.5878 L 80.309,-50.951 L 81,-50 L 80.309,-49.0489 z
M 75.191,-49.4122 L 75.191,-50.5878 L 76.309,-50.951 L 77,-50 L 76.309,-49.0489 z
M 63.191,-49.4122 L 63.191,-50.5878 L 64.309,-50.951 L 65,-50 L 64.309,-49.0489 z
M 71.191,-49.4122 L 71.191,-50.5878 L 72.309,-50.951 L 73,-50 L 72.309,-49.0489 z
M 29.191,-49.4122 L 29.191,-50.5878 L 30.309,-50.951 L 31,-50 L 30.309,-49.0489 z
M 49.191,-49.4122 L 49.191,-50.5878 L 50.309,-50.951 L 51,-50 L 50.309,-49.0489 z
M 45.191,-49.4122 L 45.191,-50.5878 L 46.309,-50.951 L 47,-50 L 46.309,-49.0489 z
M 33.191,-49.4122 L 33.191,-50.5878 L 34.309,-50.951 L 35,-50 L 34.309,-49.0489 z
M 41.191,-49.4122 L 41.191,-50.5878 L 42.309,-50.951 L 43,-50 L 42.309,-49.0489 z
M 37.191,-49.4122 L 37.191,-50.5878 L 38.309,-50.951 L 39,-50 L 38.309,-49.0489 z
M 67.191,-49.4122 L 67.191,-50.5878 L 68.309,-50.951 L 69,-50 L 68.309,-49.0489 z
M 63.191,-45.4122 L 63.191,-46.5878 L 64.309,-46.951 L 65,-46 L 64.309,-45.0489 z
M 33.191,-45.4122 L 33.191,-46.5878 L 34.309,-46.951 L 35,-46 L 34.309,-45.0489 z
M 37.191,-45.4122 L 37.191,-46.5878 L 38.309,-46.951 L 39,-46 L 38.309,-45.0489 z
M 41.191,-45.4122 L 41.191,-46.5878 L 42.309,-46.951 L 43,-46 L 42.309,-45.0489 z
M 45.191,-45.4122 L 45.191,-46.5878 L 46.309,-46.951 L 47,-46 L 46.309,-45.0489 z
M 49.191,-45.4122 L 49.191,-46.5878 L 50.309,-46.951 L 51,-46 L 50.309,-45.0489 z
M 29.191,-45.4122 L 29.191,-46.5878 L 30.309,-46.951 L 31,-46 L 30.309,-45.0489 z
M 59.191,-45.4122 L 59.191,-46.5878 L 60.309,-46.951 L 61,-46 L 60.309,-45.0489 z
M 79.191,-45.4122 L 79.191,-46.5878 L 80.309,-46.951 L 81,-46 L 80.309,-45.0489 z
M 75.191,-45.4122 L 75.191,-46.5878 L 76.309,-46.951 L 77,-46 L 76.309,-45.0489 z
M 71.191,-45.4122 L 71.191,-46.5878 L 72.309,-46.951 L 73,-46 L 72.309,-45.0489 z
M 67.191,-45.4122 L 67.191,-46.5878 L 68.309,-46.951 L 69,-46 L 68.309,-45.0489 z
M 67.191,-41.4122 L 67.191,-42.5878 L 68.309,-42.951 L 69,-42 L 68.309,-41.0489 z
M 79.191,-41.4122 L 79.191,-42.5878 L 80.309,-42.951 L 81,-42 L 80.309,-41.0489 z
M 75.191,-41.4122 L 75.191,-42.5878 L 76.309,-42.951 L 77,-42 L 76.309,-41.0489 z
M 63.191,-41.4122 L 63.191,-42.5878 L 64.309,-42.951 L 65,-42 L 64.309,-41.0489 z
M 71.191,-41.4122 L 71.191,-42.5878 L 72.309,-42.951 L 73,-42 L 72.309,-41.0489 z
M 59.191,-41.4122 L 59.191,-42.5878 L 60.309,-42.951 L 61,-42 L 60.309,-41.0489 z
M 29.191,-41.4122 L 29.191,-42.5878 L 30.309,-42.951 L 31,-42 L 30.309,-41.0489 z
M 37.191,-41.4122 L 37.191,-42.5878 L 38.309,-42.951 L 39,-42 L 38.309,-41.0489 z
M 49.191,-41.4122 L 49.191,-42.5878 L 50.309,-42.951 L 51,-42 L 50.309,-41.0489 z
M 45.191,-41.4122 L 45.191,-42.5878 L 46.309,-42.951 L 47,-42 L 46.309,-41.0489 z
M 33.191,-41.4122 L 33.191,-42.5878 L 34.309,-42.951 L 35,-42 L 34.309,-41.0489 z
M 41.191,-41.4122 L 41.191,-42.5878 L 42.309,-42.951 L 43,-42 L 42.309,-41.0489 z
M 67.191,-37.4122 L 67.191,-38.5878 L 68.309,-38.951 L 69,-38 L 68.309,-37.0489 z
M 41.191,-37.4122 L 41.191,-38.5878 L 42.309,-38.951 L 43,-38 L 42.309,-37.0489 z
M 29.191,-37.4122 L 29.191,-38.5878 L 30.309,-38.951 L 31,-38 L 30.309,-37.0489 z
M 45.191,-37.4122 L 45.191,-38.5878 L 46.309,-38.951 L 47,-38 L 46.309,-37.0489 z
M 49.191,-37.4122 L 49.191,-38.5878 L 50.309,-38.951 L 51,-38 L 50.309,-37.0489 z
M 37.191,-37.4122 L 37.191,-38.5878 L 38.309,-38.951 L 39,-38 L 38.309,-37.0489 z
M 71.191,-37.4122 L 71.191,-38.5878 L 72.309,-38.951 L 73,-38 L 72.309,-37.0489 z
M 33.191,-37.4122 L 33.191,-38.5878 L 34.309,-38.951 L 35,-38 L 34.309,-37.0489 z
M 59.191,-37.4122 L 59.191,-38.5878 L 60.309,-38.951 L 61,-38 L 60.309,-37.0489 z
M 75.191,-37.4122 L 75.191,-38.5878 L 76.309,-38.951 L 77,-38 L 76.309,-37.0489 z
M 79.191,-37.4122 L 79.191,-38.5878 L 80.309,-38.951 L 81,-38 L 80.309,-37.0489 z
M 63.191,-37.4122 L 63.191,-38.5878 L 64.309,-38.951 L 65,-38 L 64.309,-37.0489 z
M 71.191,-33.4122 L 71.191,-34.5878 L 72.309,-34.951 L 73,-34 L 72.309,-33.0489 z
M 79.191,-33.4122 L 79.191,-34.5878 L 80.309,-34.951 L 81,-34 L 80.309,-33.0489 z
M 59.191,-33.4122 L 59.191,-34.5878 L 60.309,-34.951 L 61,-34 L 60.309,-33.0489 z
M 67.191,-33.4122 L 67.191,-34.5878 L 68.309,-34.951 L 69,-34 L 68.309,-33.0489 z
M 75.191,-33.4122 L 75.191,-34.5878 L 76.309,-34.951 L 77,-34 L 76.309,-33.0489 z
M 63.191,-33.4122 L 63.191,-34.5878 L 64.309,-34.951 L 65,-34 L 64.309,-33.0489 z
M 33.191,-33.4122 L 33.191,-34.5878 L 34.309,-34.951 L 35,-34 L 34.309,-33.0489 z
M 45.191,-33.4122 L 45.191,-34.5878 L 46.309,-34.951 L 47,-34 L 46.309,-33.0489 z
M 37.191,-33.4122 L 37.191,-34.5878 L 38.309,-34.951 L 39,-34 L 38.309,-33.0489 z
M 29.191,-33.4122 L 29.191,-34.5878 L 30.309,-34.951 L 31,-34 L 30.309,-33.0489 z
M 49.191,-33.4122 L 49.191,-34.5878 L 50.309,-34.951 L 51,-34 L 50.309,-33.0489 z
M 41.191,-33.4122 L 41.191,-34.5878 L 42.309,-34.951 L 43,-34 L 42.309,-33.0489 z
M 41.191,-29.4122 L 41.191,-30.5878 L 42.309,-30.951 L 43,-30 L 42.309,-29.049 z
M 67.191,-29.4122 L 67.191,-30.5878 L 68.309,-30.951 L 69,-30 L 68.309,-29.049 z
M 71.191,-29.4122 L 71.191,-30.5878 L 72.309,-30.951 L 73,-30 L 72.309,-29.049 z
M 59.191,-29.4122 L 59.191,-30.5878 L 60.309,-30.951 L 61,-30 L 60.309,-29.049 z
M 75.191,-29.4122 L 75.191,-30.5878 L 76.309,-30.951 L 77,-30 L 76.309,-29.049 z
M 63.191,-29.4122 L 63.191,-30.5878 L 64.309,-30.951 L 65,-30 L 64.309,-29.049 z
M 79.191,-29.4122 L 79.191,-30.5878 L 80.309,-30.951 L 81,-30 L 80.309,-29.049 z
M 49.191,-29.4122 L 49.191,-30.5878 L 50.309,-30.951 L 51,-30 L 50.309,-29.049 z
M 33.191,-29.4122 L 33.191,-30.5878 L 34.309,-30.951 L 35,-30 L 34.309,-29.049 z
M 45.191,-29.4122 L 45.191,-30.5878 L 46.309,-30.951 L 47,-30 L 46.309,-29.049 z
M 29.191,-29.4122 L 29.191,-30.5878 L 30.309,-30.951 L 31,-30 L 30.309,-29.049 z
M 37.191,-29.4122 L 37.191,-30.5878 L 38.309,-30.951 L 39,-30 L 38.309,-29.049 z
M 91,-10 L 91,-20 L 94,-20 L 94,-10 z
M 5,-10 L 5,-20 L 8,-20 L 8,-10 z
M 83.9058,-11.503 L 83.7189,-11.5266 L 83.5365,-11.5734 L 83.3613,-11.6428 L 83.1963,-11.7335 L 83.0439,-11.8442
 L 82.9065,-11.9732 L 82.7865,-12.1183 L 82.6855,-12.2774 L 82.6053,-12.4478 L 82.5471,-12.627 L 82.5118,-12.812
 L 82.5,-13 L 82.5118,-13.188 L 82.5471,-13.373 L 82.6053,-13.5522 L 82.6855,-13.7226 L 82.7865,-13.8817
 L 82.9065,-14.0268 L 83.0439,-14.1558 L 83.1963,-14.2665 L 83.3613,-14.3572 L 83.5365,-14.4266 L 83.7189,-14.4734
 L 83.9058,-14.497 L 84.0942,-14.497 L 84.2811,-14.4734 L 84.4635,-14.4266 L 84.6387,-14.3572 L 84.8037,-14.2665
 L 84.9561,-14.1558 L 85.0934,-14.0268 L 85.2135,-13.8817 L 85.3145,-13.7226 L 85.3947,-13.5522 L 85.4529,-13.373
 L 85.4882,-13.188 L 85.5,-13 L 85.4882,-12.812 L 85.4529,-12.627 L 85.3947,-12.4478 L 85.3145,-12.2774
 L 85.2135,-12.1183 L 85.0934,-11.9732 L 84.9561,-11.8442 L 84.8037,-11.7335 L 84.6387,-11.6428 L 84.4635,-11.5734
 L 84.2811,-11.5266 L 84.0942,-11.503 z
M 12.9058,-11.503 L 12.7189,-11.5266 L 12.5365,-11.5734 L 12.3613,-11.6428 L 12.1963,-11.7335 L 12.0439,-11.8442
 L 11.9066,-11.9732 L 11.7865,-12.1183 L 11.6855,-12.2774 L 11.6053,-12.4478 L 11.5471,-12.627 L 11.5118,-12.812
 L 11.5,-13 L 11.5118,-13.188 L 11.5471,-13.373 L 11.6053,-13.5522 L 11.6855,-13.7226 L 11.7865,-13.8817
 L 11.9066,-14.0268 L 12.0439,-14.1558 L 12.1963,-14.2665 L 12.3613,-14.3572 L 12.5365,-14.4266 L 12.7189,-14.4734
 L 12.9058,-14.497 L 13.0942,-14.497 L 13.2811,-14.4734 L 13.4635,-14.4266 L 13.6387,-14.3572 L 13.8037,-14.2665
 L 13.9561,-14.1558 L 14.0934,-14.0268 L 14.2135,-13.8817 L 14.3145,-13.7226 L 14.3947,-13.5522 L 14.4529,-13.373
 L 14.4882,-13.188 L 14.5,-13 L 14.4882,-12.812 L 14.4529,-12.627 L 14.3947,-12.4478 L 14.3145,-12.2774
 L 14.2135,-12.1183 L 14.0934,-11.9732 L 13.9561,-11.8442 L 13.8037,-11.7335 L 13.6387,-11.6428 L 13.4635,-11.5734
 L 13.2811,-11.5266 L 13.0942,-11.503 z
M 10,-5 L 10,-8 L 20,-8 L 20,-5 z
M 79,-5 L 79,-8 L 89,-8 L 89,-5 z
" stroke="black" fill="lightgray" stroke-width="0.5"/>
</svg>
