<?xml version="1.0" standalone="no"?>
<!DOCTYPE svg PUBLIC "-//W3C//DTD SVG 1.1//EN" "http://www.w3.org/Graphics/SVG/1.1/DTD/svg11.dtd">
<svg width="99mm" height="72mm" viewBox="0 -72 99 72" xmlns="http://www.w3.org/2000/svg" version="1.1">
<title>OpenSCAD Model</title>
<path d="
M 96,-0.14682 L 96.927,-0.14682 L 98.427,-1.23663 L 99,-3 L 99,-69 L 98.427,-70.7634
 L 96.927,-71.8532 L 96,-71.8532 L 96,-72 L 3,-72 L 3,-71.8532 L 2.07294,-71.8532
 L 0.572937,-70.7634 L 0,-69 L 0,-3 L 0.572937,-1.23663 L 2.07294,-0.14682 L 3,-0.14682
 L 3,-0 L 96,-0 z
M 10,-64 L 10,-67 L 20,-67 L 20,-64 z
M 79,-64 L 79,-67 L 89,-67 L 89,-64 z
M 91,-52 L 91,-62 L 94,-62 L 94,-52 z
M 5,-52 L 5,-62 L 8,-62 L 8,-52 z
M 12.9058,-55.5029 L 12.7189,-55.5266 L 12.5365,-55.5734 L 12.3613,-55.6427 L 12.1963,-55.7335 L 12.0439,-55.8442
 L 11.9066,-55.9732 L 11.7865,-56.1183 L 11.6855,-56.2774 L 11.6053,-56.4478 L 11.5471,-56.627 L 11.5118,-56.812
 L 11.5,-57 L 11.5118,-57.188 L 11.5471,-57.373 L 11.6053,-57.5522 L 11.6855,-57.7226 L 11.7865,-57.8817
 L 11.9066,-58.0268 L 12.0439,-58.1558 L 12.1963,-58.2665 L 12.3613,-58.3572 L 12.5365,-58.4266 L 12.7189,-58.4734
 L 12.9058,-58.497 L 13.0942,-58.497 L 13.2811,-58.4734 L 13.4635,-58.4266 L 13.6387,-58.3572 L 13.8037,-58.2665
 L 13.9561,-58.1558 L 14.0934,-58.0268 L 14.2135,-57.8817 L 14.3145,-57.7226 L 14.3947,-57.5522 L 14.4529,-57.373
 L 14.4882,-57.188 L 14.5,-57 L 14.4882,-56.812 L 14.4529,-56.627 L 14.3947,-56.4478 L 14.3145,-56.2774
 L 14.2135,-56.1183 L 14.0934,-55.9732 L 13.9561,-55.8442 L 13.8037,-55.7335 L 13.6387,-55.6427 L 13.4635,-55.5734
 L 13.2811,-55.5266 L 13.0942,-55.5029 z
M 83.9058,-55.5029 L 83.7189,-55.5266 L 83.5365,-55.5734 L 83.3613,-55.6427 L 83.1963,-55.7335 L 83.0439,-55.8442
 L 82.9065,-55.9732 L 82.7865,-56.1183 L 82.6855,-56.2774 L 82.6053,-56.4478 L 82.5471,-56.627 L 82.5118,-56.812
 L 82.5,-57 L 82.5118,-57.188 L 82.5471,-57.373 L 82.6053,-57.5522 L 82.6855,-57.7226 L 82.7865,-57.8817
 L 82.9065,-58.0268 L 83.0439,-58.1558 L 83.1963,-58.2665 L 83.3613,-58.3572 L 83.5365,-58.4266 L 83.7189,-58.4734
 L 83.9058,-58.497 L 84.0942,-58.497 L 84.2811,-58.4734 L 84.4635,-58.4266 L 84.6387,-58.3572 L 84.8037,-58.2665
 L 84.9561,-58.1558 L 85.0934,-58.0268 L 85.2135,-57.8817 L 85.3145,-57.7226 L 85.3947,-57.5522 L 85.4529,-57.373
 L 85.4882,-57.188 L 85.5,-57 L 85.4882,-56.812 L 85.4529,-56.627 L 85.3947,-56.4478 L 85.3145,-56.2774
 L 85.2135,-56.1183 L 85.0934,-55.9732 L 84.9561,-55.8442 L 84.8037,-55.7335 L 84.6387,-55.6427 L 84.4635,-55.5734
 L 84.2811,-55.5266 L 84.0942,-55.5029 z
M 29.0729,-44.1468 L 27.5729,-45.2366 L 27,-47 L 27.5729,-48.7634 L 29.0729,-49.8532 L 30.927,-49.8532
 L 32.427,-48.7634 L 33,-47 L 32.427,-45.2366 L 30.927,-44.1468 z
M 19.191,-34.4122 L 19.191,-35.5878 L 20.309,-35.951 L 21,-35 L 20.309,-34.0489 z
M 39.191,-34.4122 L 39.191,-35.5878 L 40.309,-35.951 L 41,-35 L 40.309,-34.0489 z
M 35.191,-34.4122 L 35.191,-35.5878 L 36.309,-35.951 L 37,-35 L 36.309,-34.0489 z
M 23.191,-34.4122 L 23.191,-35.5878 L 24.309,-35.951 L 25,-35 L 24.309,-34.0489 z
M 31.191,-34.4122 L 31.191,-35.5878 L 32.309,-35.951 L 33,-35 L 32.309,-34.0489 z
M 27.191,-34.4122 L 27.191,-35.5878 L 28.309,-35.951 L 29,-35 L 28.309,-34.0489 z
M 23.191,-30.4122 L 23.191,-31.5878 L 24.309,-31.951 L 25,-31 L 24.309,-30.0489 z
M 27.191,-30.4122 L 27.191,-31.5878 L 28.309,-31.951 L 29,-31 L 28.309,-30.0489 z
M 19.191,-30.4122 L 19.191,-31.5878 L 20.309,-31.951 L 21,-31 L 20.309,-30.0489 z
M 39.191,-30.4122 L 39.191,-31.5878 L 40.309,-31.951 L 41,-31 L 40.309,-30.0489 z
M 35.191,-30.4122 L 35.191,-31.5878 L 36.309,-31.951 L 37,-31 L 36.309,-30.0489 z
M 31.191,-30.4122 L 31.191,-31.5878 L 32.309,-31.951 L 33,-31 L 32.309,-30.0489 z
M 39.191,-26.4122 L 39.191,-27.5878 L 40.309,-27.951 L 41,-27 L 40.309,-26.0489 z
M 27.191,-26.4122 L 27.191,-27.5878 L 28.309,-27.951 L 29,-27 L 28.309,-26.0489 z
M 19.191,-26.4122 L 19.191,-27.5878 L 20.309,-27.951 L 21,-27 L 20.309,-26.0489 z
M 35.191,-26.4122 L 35.191,-27.5878 L 36.309,-27.951 L 37,-27 L 36.309,-26.0489 z
M 23.191,-26.4122 L 23.191,-27.5878 L 24.309,-27.951 L 25,-27 L 24.309,-26.0489 z
M 31.191,-26.4122 L 31.191,-27.5878 L 32.309,-27.951 L 33,-27 L 32.309,-26.0489 z
M 31.191,-22.4122 L 31.191,-23.5878 L 32.309,-23.951 L 33,-23 L 32.309,-22.0489 z
M 19.191,-22.4122 L 19.191,-23.5878 L 20.309,-23.951 L 21,-23 L 20.309,-22.0489 z
M 35.191,-22.4122 L 35.191,-23.5878 L 36.309,-23.951 L 37,-23 L 36.309,-22.0489 z
M 39.191,-22.4122 L 39.191,-23.5878 L 40.309,-23.951 L 41,-23 L 40.309,-22.0489 z
M 27.191,-22.4122 L 27.191,-23.5878 L 28.309,-23.951 L 29,-23 L 28.309,-22.0489 z
M 23.191,-22.4122 L 23.191,-23.5878 L 24.309,-23.951 L 25,-23 L 24.309,-22.0489 z
M 5,-10 L 5,-20 L 8,-20 L 8,-10 z
M 91,-10 L 91,-20 L 94,-20 L 94,-10 z
M 31.191,-18.4122 L 31.191,-19.5878 L 32.309,-19.951 L 33,-19 L 32.309,-18.0489 z
M 39.191,-18.4122 L 39.191,-19.5878 L 40.309,-19.951 L 41,-19 L 40.309,-18.0489 z
M 19.191,-18.4122 L 19.191,-19.5878 L 20.309,-19.951 L 21,-19 L 20.309,-18.0489 z
M 27.191,-18.4122 L 27.191,-19.5878 L 28.309,-19.951 L 29,-19 L 28.309,-18.0489 z
M 35.191,-18.4122 L 35.191,-19.5878 L 36.309,-19.951 L 37,-19 L 36.309,-18.0489 z
M 23.191,-18.4122 L 23.191,-19.5878 L 24.309,-19.951 L 25,-19 L 24.309,-18.0489 z
M 27.191,-14.4122 L 27.191,-15.5878 L 28.309,-15.951 L 29,-15 L 28.309,-14.049 z
M 31.191,-14.4122 L 31.191,-15.5878 L 32.309,-15.951 L 33,-15 L 32.309,-14.049 z
M 39.191,-14.4122 L 39.191,-15.5878 L 40.309,-15.951 L 41,-15 L 40.309,-14.049 z
M 23.191,-14.4122 L 23.191,-15.5878 L 24.309,-15.951 L 25,-15 L 24.309,-14.049 z
M 35.191,-14.4122 L 35.191,-15.5878 L 36.309,-15.951 L 37,-15 L 36.309,-14.049 z
M 19.191,-14.4122 L 19.191,-15.5878 L 20.309,-15.951 L 21,-15 L 20.309,-14.049 z
M 12.9058,-11.503 L 12.7189,-11.5266 L 12.5365,-11.5734 L 12.3613,-11.6428 L 12.1963,-11.7335 L 12.0439,-11.8442
 L 11.9066,-11.9732 L 11.7865,-12.1183 L 11.6855,-12.2774 L 11.6053,-12.4478 L 11.5471,-12.627 L 11.5118,-12.812
 L 11.5,-13 L 11.5118,-13.188 L 11.5471,-13.373 L 11.6053,-13.5522 L 11.6855,-13.7226 L 11.7865,-13.8817
 L 11.9066,-14.0268 L 12.0439,-14.1558 L 12.1963,-14.2665 L 12.3613,-14.3572 L 12.5365,-14.4266 L 12.7189,-14.4734
 L 12.9058,-14.497 L 13.0942,-14.497 L 13.2811,-14.4734 L 13.4635,-14.4266 L 13.6387,-14.3572 L 13.8037,-14.2665
 L 13.9561,-14.1558 L 14.0934,-14.0268 L 14.2135,-13.8817 L 14.3145,-13.7226 L 14.3947,-13.5522 L 14.4529,-13.373
 L 14.4882,-13.188 L 14.5,-13 L 14.4882,-12.812 L 14.4529,-12.627 L 14.3947,-12.4478 L 14.3145,-12.2774
 L 14.2135,-12.1183 L 14.0934,-11.9732 L 13.9561,-11.8442 L 13.8037,-11.7335 L 13.6387,-11.6428 L 13.4635,-11.5734
 L 13.2811,-11.5266 L 13.0942,-11.503 z
M 83.9058,-11.503 L 83.7189,-11.5266 L 83.5365,-11.5734 L 83.3613,-11.6428 L 83.1963,-11.7335 L 83.0439,-11.8442
 L 82.9065,-11.9732 L 82.7865,-12.1183 L 82.6855,-12.2774 L 82.6053,-12.4478 L 82.5471,-12.627 L 82.5118,-12.812
 L 82.5,-13 L 82.5118,-13.188 L 82.5471,-13.373 L 82.6053,-13.5522 L 82.6855,-13.7226 L 82.7865,-13.8817
 L 82.9065,-14.0268 L 83.0439,-14.1558 L 83.1963,-14.2665 L 83.3613,-14.3572 L 83.5365,-14.4266 L 83.7189,-14.4734
 L 83.9058,-14.497 L 84.0942,-14.497 L 84.2811,-14.4734 L 84.4635,-14.4266 L 84.6387,-14.3572 L 84.8037,-14.2665
 L 84.9561,-14.1558 L 85.0934,-14.0268 L 85.2135,-13.8817 L 85.3145,-13.7226 L 85.3947,-13.5522 L 85.4529,-13.373
 L 85.4882,-13.188 L 85.5,-13 L 85.4882,-12.812 L 85.4529,-12.627 L 85.3947,-12.4478 L 85.3145,-12.2774
 L 85.2135,-12.1183 L 85.0934,-11.9732 L 84.9561,-11.8442 L 84.8037,-11.7335 L 84.6387,-11.6428 L 84.4635,-11.5734
 L 84.2811,-11.5266 L 84.0942,-11.503 z
M 10,-5 L 10,-8 L 20,-8 L 20,-5 z
M 79,-5 L 79,-8 L 89,-8 L 89,-5 z
" stroke="black" fill="lightgray" stroke-width="0.5"/>
</svg>
